{
  "accessors": [
    {
      "bufferView": 2,
      "componentType": 5126,
      "count": 12,
      "max": [
        0.9999960064888,
        0.0,
        -4.315029855206376e-06
      ],
      "min": [
        -0.9999960064888,
        -0.9999960064888,
        -1.0
      ],
      "type": "VEC3"
    },
    {
      "bufferView": 2,
      "byteOffset": 144,
      "componentType": 5126,
      "count": 12,
      "max": [
        0.8628591895103455,
        -0.35740309953689575,
        -0.35740309953689575
      ],
      "min": [
        -0.8628591895103455,
        -0.9238813519477844,
        -0.9238813519477844
      ],
      "type": "VEC3"
    },
    {
      "bufferView": 3,
      "componentType": 5126,
      "count": 12,
      "max": [
        1.0,
        0.731722354888916,
        0.7317222952842712,
        1.0
      ],
      "min": [
        -1.0,
        -0.14922736585140228,
        -0.14922736585140228,
        1.0
      ],
      "type": "VEC4"
    },
    {
      "bufferView": 1,
      "componentType": 5126,
      "count": 12,
      "max": [
        0.6834149956703186,
        0.8745359778404236
      ],
      "min": [
        0.0,
        0.5400689840316772
      ],
      "type": "VEC2"
    },
    {
      "bufferView": 0,
      "componentType": 5125,
      "count": 24,
      "type": "SCALAR"
    },
    {
      "bufferView": 2,
      "byteOffset": 288,
      "componentType": 5126,
      "count": 12,
      "max": [
        0.9999960064888,
        0.0,
        1.0
      ],
      "min": [
        -0.9999960064888,
        -0.9999960064888,
        -4.315029855206376e-06
      ],
      "type": "VEC3"
    },
    {
      "bufferView": 2,
      "byteOffset": 432,
      "componentType": 5126,
      "count": 12,
      "max": [
        0.8628591895103455,
        -0.35740309953689575,
        0.9238775372505188
      ],
      "min": [
        -0.8628591895103455,
        -0.9238813519477844,
        0.35740309953689575
      ],
      "type": "VEC3"
    },
    {
      "bufferView": 3,
      "byteOffset": 192,
      "componentType": 5126,
      "count": 12,
      "max": [
        1.0,
        0.7317197322845459,
        0.1492290049791336,
        1.0
      ],
      "min": [
        0.3301981985569,
        -0.9339503049850464,
        -0.5980529189109802,
        1.0
      ],
      "type": "VEC4"
    },
    {
      "bufferView": 1,
      "byteOffset": 96,
      "componentType": 5126,
      "count": 12,
      "max": [
        0.6082260012626648,
        0.6163899898529053
      ],
      "min": [
        0.17807899415493011,
        0.0
      ],
      "type": "VEC2"
    },
    {
      "bufferView": 0,
      "byteOffset": 96,
      "componentType": 5125,
      "count": 24,
      "type": "SCALAR"
    },
    {
      "bufferView": 2,
      "byteOffset": 576,
      "componentType": 5126,
      "count": 12,
      "max": [
        0.9999960064888,
        0.9999960064888,
        -4.315029855206376e-06
      ],
      "min": [
        -0.9999960064888,
        0.0,
        -1.0
      ],
      "type": "VEC3"
    },
    {
      "bufferView": 2,
      "byteOffset": 720,
      "componentType": 5126,
      "count": 12,
      "max": [
        0.8628591895103455,
        0.9238813519477844,
        -0.35740309953689575
      ],
      "min": [
        -0.8628591895103455,
        0.35740309953689575,
        -0.9238813519477844
      ],
      "type": "VEC3"
    },
    {
      "bufferView": 3,
      "byteOffset": 384,
      "componentType": 5126,
      "count": 12,
      "max": [
        -0.3301970362663269,
        0.9339503049850464,
        0.7317208647727966,
        1.0
      ],
      "min": [
        -1.0,
        -0.4669731557369232,
        3.749532595520577e-08,
        1.0
      ],
      "type": "VEC4"
    },
    {
      "bufferView": 1,
      "byteOffset": 192,
      "componentType": 5126,
      "count": 12,
      "max": [
        1.0,
        0.8698949813842773
      ],
      "min": [
        0.6648280024528503,
        0.0
      ],
      "type": "VEC2"
    },
    {
      "bufferView": 0,
      "byteOffset": 192,
      "componentType": 5125,
      "count": 24,
      "type": "SCALAR"
    },
    {
      "bufferView": 2,
      "byteOffset": 864,
      "componentType": 5126,
      "count": 12,
      "max": [
        0.9999960064888,
        0.9999960064888,
        1.0
      ],
      "min": [
        -0.9999960064888,
        0.0,
        -4.315029855206376e-06
      ],
      "type": "VEC3"
    },
    {
      "bufferView": 2,
      "byteOffset": 1008,
      "componentType": 5126,
      "count": 12,
      "max": [
        0.8628591895103455,
        0.9238813519477844,
        0.9238775372505188
      ],
      "min": [
        -0.8628591895103455,
        0.35740309953689575,
        0.35740309953689575
      ],
      "type": "VEC3"
    },
    {
      "bufferView": 3,
      "byteOffset": 576,
      "componentType": 5126,
      "count": 12,
      "max": [
        0.7622117400169373,
        0.9339503049850464,
        -0.1367676705121994,
        1.0
      ],
      "min": [
        -0.7622113823890686,
        0.24771884083747864,
        -0.5980545878410339,
        1.0
      ],
      "type": "VEC4"
    },
    {
      "bufferView": 1,
      "byteOffset": 288,
      "componentType": 5126,
      "count": 12,
      "max": [
        0.8021349906921387,
        0.5716050267219543
      ],
      "min": [
        0.0,
        0.0
      ],
      "type": "VEC2"
    },
    {
      "bufferView": 0,
      "byteOffset": 288,
      "componentType": 5125,
      "count": 24,
      "type": "SCALAR"
    }
  ],
  "asset": {
    "extras": {
      "author": "manuel.codina14 (https://sketchfab.com/manuel.codina14)",
      "license": "CC-BY-4.0 (http://creativecommons.org/licenses/by/4.0/)",
      "source": "https://sketchfab.com/3d-models/sci-fi-ball-cfbf6138f39443259ad5e0fea79183e8",
      "title": "Sci-fi Ball"
    },
    "generator": "Sketchfab-12.66.0",
    "version": "2.0"
  },
  "bufferViews": [
    {
      "buffer": 0,
      "byteLength": 384,
      "name": "floatBufferViews",
      "target": 34963
    },
    {
      "buffer": 0,
      "byteLength": 384,
      "byteOffset": 384,
      "byteStride": 8,
      "name": "floatBufferViews",
      "target": 34962
    },
    {
      "buffer": 0,
      "byteLength": 1152,
      "byteOffset": 768,
      "byteStride": 12,
      "name": "floatBufferViews",
      "target": 34962
    },
    {
      "buffer": 0,
      "byteLength": 768,
      "byteOffset": 1920,
      "byteStride": 16,
      "name": "floatBufferViews",
      "target": 34962
    }
  ],
  "buffers": [
    {
      "byteLength": 2688,
      "uri": "scene.bin"
    }
  ],
  "images": [
    {
      "uri": "textures/tierra_baseColor.jpeg"
    },
    {
      "uri": "textures/tierra_metallicRoughness.png"
    },
    {
      "uri": "textures/tierra_normal.png"
    },
    {
      "uri": "textures/aire_baseColor.jpeg"
    },
    {
      "uri": "textures/aire_metallicRoughness.png"
    },
    {
      "uri": "textures/aire_normal.png"
    },
    {
      "uri": "textures/fuego_baseColor.jpeg"
    },
    {
      "uri": "textures/fuego_metallicRoughness.png"
    },
    {
      "uri": "textures/fuego_normal.png"
    },
    {
      "uri": "textures/agua_baseColor.jpeg"
    },
    {
      "uri": "textures/agua_metallicRoughness.png"
    },
    {
      "uri": "textures/agua_normal.png"
    }
  ],
  "materials": [
    {
      "doubleSided": true,
      "name": "tierra",
      "normalTexture": {
        "index": 2
      },
      "occlusionTexture": {
        "index": 1
      },
      "pbrMetallicRoughness": {
        "baseColorTexture": {
          "index": 0
        },
        "metallicRoughnessTexture": {
          "index": 1
        }
      }
    },
    {
      "doubleSided": true,
      "name": "aire",
      "normalTexture": {
        "index": 5
      },
      "occlusionTexture": {
        "index": 4
      },
      "pbrMetallicRoughness": {
        "baseColorTexture": {
          "index": 3
        },
        "metallicRoughnessTexture": {
          "index": 4
        }
      }
    },
    {
      "doubleSided": true,
      "name": "fuego",
      "normalTexture": {
        "index": 8
      },
      "occlusionTexture": {
        "index": 7
      },
      "pbrMetallicRoughness": {
        "baseColorTexture": {
          "index": 6
        },
        "metallicRoughnessTexture": {
          "index": 7
        }
      }
    },
    {
      "doubleSided": true,
      "name": "agua",
      "normalTexture": {
        "index": 11
      },
      "occlusionTexture": {
        "index": 10
      },
      "pbrMetallicRoughness": {
        "baseColorTexture": {
          "index": 9
        },
        "metallicRoughnessTexture": {
          "index": 10
        }
      }
    }
  ],
  "meshes": [
    {
      "name": "defaultMaterial",
      "primitives": [
        {
          "attributes": {
            "NORMAL": 1,
            "POSITION": 0,
            "TANGENT": 2,
            "TEXCOORD_0": 3
          },
          "indices": 4,
          "material": 3,
          "mode": 4
        }
      ]
    },
    {
      "name": "defaultMaterial",
      "primitives": [
        {
          "attributes": {
            "NORMAL": 6,
            "POSITION": 5,
            "TANGENT": 7,
            "TEXCOORD_0": 8
          },
          "indices": 9,
          "material": 2,
          "mode": 4
        }
      ]
    },
    {
      "name": "defaultMaterial",
      "primitives": [
        {
          "attributes": {
            "NORMAL": 11,
            "POSITION": 10,
            "TANGENT": 12,
            "TEXCOORD_0": 13
          },
          "indices": 14,
          "material": 1,
          "mode": 4
        }
      ]
    },
    {
      "name": "defaultMaterial",
      "primitives": [
        {
          "attributes": {
            "NORMAL": 16,
            "POSITION": 15,
            "TANGENT": 17,
            "TEXCOORD_0": 18
          },
          "indices": 19,
          "material": 0,
          "mode": 4
        }
      ]
    }
  ],
  "nodes": [
    {
      "children": [
        1
      ],
      "matrix": [
        0.3299185037612915,
        0.0,
        0.0,
        0.0,
        0.0,
        7.325662382513343e-17,
        -0.3299185037612915,
        0.0,
        0.0,
        0.3299185037612915,
        7.325662382513343e-17,
        0.0,
        0.0,
        0.0,
        0.0,
        1.0
      ],
      "name": "Sketchfab_model"
    },
    {
      "children": [
        2,
        4,
        6,
        8
      ],
      "matrix": [
        1.0,
        0.0,
        0.0,
        0.0,
        0.0,
        -4.371139006309477e-08,
        0.999999999999999,
        0.0,
        0.0,
        -0.999999999999999,
        -4.371139006309477e-08,
        0.0,
        0.0,
        0.0,
        0.0,
        1.0
      ],
      "name": "Collada visual scene group"
    },
    {
      "children": [
        3
      ],
      "name": "g"
    },
    {
      "mesh": 0,
      "name": "defaultMaterial"
    },
    {
      "children": [
        5
      ],
      "name": "g"
    },
    {
      "mesh": 1,
      "name": "defaultMaterial"
    },
    {
      "children": [
        7
      ],
      "name": "g"
    },
    {
      "mesh": 2,
      "name": "defaultMaterial"
    },
    {
      "children": [
        9
      ],
      "name": "g"
    },
    {
      "mesh": 3,
      "name": "defaultMaterial"
    }
  ],
  "samplers": [
    {
      "magFilter": 9729,
      "minFilter": 9987,
      "wrapS": 10497,
      "wrapT": 10497
    }
  ],
  "scene": 0,
  "scenes": [
    {
      "name": "Sketchfab_Scene",
      "nodes": [
        0
      ]
    }
  ],
  "textures": [
    {
      "sampler": 0,
      "source": 0
    },
    {
      "sampler": 0,
      "source": 1
    },
    {
      "sampler": 0,
      "source": 2
    },
    {
      "sampler": 0,
      "source": 3
    },
    {
      "sampler": 0,
      "source": 4
    },
    {
      "sampler": 0,
      "source": 5
    },
    {
      "sampler": 0,
      "source": 6
    },
    {
      "sampler": 0,
      "source": 7
    },
    {
      "sampler": 0,
      "source": 8
    },
    {
      "sampler": 0,
      "source": 9
    },
    {
      "sampler": 0,
      "source": 10
    },
    {
      "sampler": 0,
      "source": 11
    }
  ]
}
